<svg xmlns="http://www.w3.org/2000/svg" version="1.1" xmlns:xlink="http://www.w3.org/1999/xlink" xmlns:svgjs="http://svgjs.dev/svgjs" width="1440" height="560" preserveAspectRatio="none" viewBox="0 0 1440 560">
  <g mask="url(&quot;#SvgjsMask1000&quot;)" fill="none">
      <rect width="1440" height="560" x="0" y="0" fill="#1e3266"></rect>
      <path d="M1512 560L0 560 L0 365.72Q37 330.72, 72 367.71Q70.51 294.22, 144 292.73Q181.14 257.88, 216 295.02Q274.1 281.12, 288 339.21Q360.28 291.49, 408 363.77Q442.51 278.28, 528 312.8Q574.78 239.58, 648 286.35Q727.52 245.87, 768 325.39Q829.84 315.23, 840 377.07Q887.07 304.14, 960 351.21Q980.01 299.22, 1032 319.22Q1051.3 266.52, 1104 285.82Q1150.81 260.63, 1176 307.43Q1232.9 292.34, 1248 349.24Q1318.06 299.3, 1368 369.35Q1382.07 311.42, 1440 325.48Q1458.28 271.76, 1512 290.04z" fill="#182f5d"></path>
      <path d="M1560 560L0 560 L0 366.45Q70.05 364.5, 72 434.54Q88.34 378.88, 144 395.23Q161.2 340.43, 216 357.63Q299.94 321.57, 336 405.51Q389.35 338.86, 456 392.2Q532.62 348.82, 576 425.44Q619.66 397.11, 648 440.77Q683.92 356.69, 768 392.62Q798.25 350.88, 840 381.13Q915.29 336.42, 960 411.71Q1010.37 390.08, 1032 440.45Q1040.91 377.36, 1104 386.27Q1134.42 344.69, 1176 375.11Q1242.6 369.71, 1248 436.31Q1284.79 353.1, 1368 389.89Q1384.63 334.52, 1440 351.15Q1513.31 304.46, 1560 377.77z" fill="#25467d"></path>
      <path d="M1488 560L0 560 L0 468.06Q36.37 384.43, 120 420.8Q163.05 391.85, 192 434.89Q284.13 407.01, 312 499.14Q334.06 449.2, 384 471.26Q429.65 396.91, 504 442.57Q535 401.56, 576 432.56Q647.59 384.14, 696 455.73Q764.14 403.87, 816 472.01Q874.88 458.88, 888 517.76Q912.68 470.44, 960 495.11Q982.61 445.72, 1032 468.32Q1054.83 419.15, 1104 441.98Q1131.8 397.77, 1176 425.57Q1252.71 382.28, 1296 459Q1320.63 411.63, 1368 436.26Q1449.47 397.74, 1488 479.21z" fill="#356cb1"></path>
      <path d="M1512 560L0 560 L0 502.74Q72.08 454.82, 120 526.89Q185.99 472.88, 240 538.86Q288.4 467.26, 360 515.66Q410.04 445.69, 480 495.73Q576.8 472.53, 600 569.33Q618.3 515.63, 672 533.93Q702.11 492.03, 744 522.14Q798.94 457.08, 864 512.01Q941.37 469.38, 984 546.74Q1036.06 478.8, 1104 530.85Q1153.64 508.5, 1176 558.14Q1222.87 533.01, 1248 579.88Q1286.41 498.3, 1368 536.71Q1387.63 484.34, 1440 503.97Q1482.1 474.07, 1512 516.17z" fill="white"></path>
  </g>
  <defs>
      <mask id="SvgjsMask1000">
          <rect width="1440" height="560" fill="#ffffff"></rect>
      </mask>
  </defs>
</svg>